<svg version="1.1" id="Layer_1" xmlns="http://www.w3.org/2000/svg" xmlns:xlink="http://www.w3.org/1999/xlink" x="0px" y="0px"
	 width="100%" viewBox="0 0 1024 1024" enable-background="new 0 0 1024 1024" xml:space="preserve">
<path fill="#000000" opacity="1.000000" stroke="none" 
	d="
M182.476898,357.149475 
	C212.824509,351.992615 240.995941,356.604248 266.205750,373.921906 
	C293.762665,392.851990 310.019501,419.191162 313.310303,452.638947 
	C317.573425,495.969086 301.415161,530.625610 265.930695,555.485107 
	C244.249969,570.674072 219.585312,576.417297 192.963913,573.583130 
	C178.311264,572.023193 164.702789,567.589783 151.809082,560.801697 
	C148.595245,559.109680 146.776093,559.779297 144.493011,562.046570 
	C132.439301,574.016785 120.303726,585.904724 108.155022,597.778748 
	C105.539047,600.335571 102.902222,602.911682 100.015274,605.142822 
	C92.014107,611.326355 81.279007,610.536865 75.175056,603.504944 
	C68.437241,595.742798 69.197174,585.011658 77.055939,577.527161 
	C90.440781,564.779785 103.849655,552.057739 117.235184,539.311096 
	C118.299225,538.297852 119.260651,537.176880 120.430183,535.935730 
	C117.777794,532.116150 115.145882,528.510071 112.703056,524.780151 
	C83.800484,480.650238 89.586800,422.992767 127.076332,385.977570 
	C142.346375,370.900757 160.859650,361.336121 182.476898,357.149475 
M235.344131,548.801819 
	C239.272766,546.991272 243.319290,545.397522 247.111710,543.336304 
	C282.773895,523.953735 299.311066,487.285950 293.321655,450.417847 
	C285.380341,401.534424 239.982880,368.696381 190.488083,376.223389 
	C136.633911,384.413483 105.479271,435.502502 116.751900,484.448669 
	C128.396408,535.009583 182.718445,567.859985 235.344131,548.801819 
z"/>
<path fill="#000000" opacity="1.000000" stroke="none" 
	d="
M584.047119,455.814270 
	C590.381775,460.863831 591.874695,467.657959 592.001831,474.797485 
	C592.212463,486.624969 591.989014,498.459625 592.122009,510.289307 
	C592.165955,514.192444 590.623901,515.527588 586.756653,515.430908 
	C574.809631,515.132080 576.935791,516.542175 576.602356,505.306427 
	C576.316162,495.664764 577.555359,485.973175 575.920288,476.384766 
	C574.809448,469.870514 570.913574,466.222046 566.007446,466.586243 
	C559.680603,467.055908 554.454407,472.413147 554.384888,478.827454 
	C554.274780,488.991150 554.117920,499.164551 554.450989,509.318420 
	C554.612366,514.239868 552.860657,515.593567 548.143433,515.466614 
	C538.838867,515.216370 538.848572,515.450684 538.847961,506.343750 
	C538.847351,497.012360 538.904907,487.679535 538.760864,478.350037 
	C538.643555,470.746155 535.486633,467.071991 529.244629,466.813721 
	C523.087463,466.558960 517.564026,471.792419 517.411621,478.588379 
	C517.191284,488.414978 517.348328,498.250092 517.346558,508.081573 
	C517.345215,515.350159 517.346802,515.350464 510.318817,515.364990 
	C509.485626,515.366760 508.639252,515.267883 507.821442,515.379822 
	C503.081177,516.028503 501.455109,514.149597 501.531189,509.266144 
	C501.795929,492.273254 501.771149,475.272003 501.548035,458.278015 
	C501.490662,453.908142 502.769104,452.082062 507.196838,452.607483 
	C509.169098,452.841461 511.217010,452.856262 513.185425,452.609772 
	C516.428162,452.203705 517.520020,454.102875 517.799316,457.150360 
	C529.816162,449.079865 540.884460,449.211456 551.165710,459.601257 
	C561.215942,450.452301 572.004517,448.731384 584.047119,455.814270 
z"/>
<path fill="#000000" opacity="1.000000" stroke="none" 
	d="
M769.342896,452.952820 
	C769.515259,465.058685 767.809143,463.518646 779.330933,463.615417 
	C786.159302,463.672791 792.993042,463.473236 799.815918,463.674652 
	C803.555237,463.785034 804.778259,462.330627 804.704041,458.688965 
	C804.527588,450.031555 804.777039,441.365479 804.600647,432.708069 
	C804.525757,429.033661 805.846558,427.791138 809.526978,427.756927 
	C820.749756,427.652496 820.951538,427.525299 820.845154,438.775848 
	C820.623291,462.248871 820.409119,485.721436 821.010498,509.188782 
	C821.132446,513.946350 819.556030,515.611694 814.701111,515.442200 
	C803.026917,515.034607 804.800781,516.569153 804.667542,505.199371 
	C804.581604,497.871735 804.548523,490.540314 804.693665,483.214600 
	C804.758911,479.922913 803.818970,478.300262 800.196350,478.364716 
	C791.371643,478.521790 782.541260,478.477478 773.714905,478.370911 
	C770.483521,478.331879 769.279968,479.676636 769.316162,482.852905 
	C769.418579,491.845886 769.200256,500.844147 769.405396,509.833557 
	C769.495605,513.787598 768.430603,515.536926 764.114075,515.423584 
	C750.769653,515.072815 752.776306,516.912842 752.717468,503.997955 
	C752.611877,480.846619 752.680725,457.694489 752.690063,434.542694 
	C752.692749,427.801117 752.713745,427.769653 759.237732,427.786896 
	C770.830750,427.817505 769.210938,426.799591 769.337402,437.970795 
	C769.392090,442.800446 769.343933,447.631195 769.342896,452.952820 
z"/>
<path fill="#000000" opacity="1.000000" stroke="none" 
	d="
M457.237610,476.975525 
	C448.109283,474.291504 439.559784,471.482513 435.556366,462.058014 
	C428.578125,445.630554 439.070312,428.018677 456.839020,426.731903 
	C464.142120,426.203064 471.425415,426.312103 478.321838,429.741486 
	C486.576630,433.846283 490.537109,440.659363 491.870422,449.411682 
	C492.023865,450.419067 492.186340,451.423065 491.477966,452.268066 
	C489.323608,454.838013 477.321808,452.842896 476.016266,449.713409 
	C472.474182,441.222748 463.485291,438.051666 455.457306,442.427277 
	C451.880219,444.376892 450.250305,447.459045 450.130493,451.409088 
	C450.009644,455.394684 452.155304,457.923492 455.560913,459.634247 
	C459.309296,461.517273 463.331390,462.565582 467.350861,463.634369 
	C472.181061,464.918701 476.882416,466.533325 481.504303,468.472687 
	C498.920532,475.780487 497.341644,500.578979 485.562622,509.469849 
	C473.696289,518.426636 454.933411,518.816101 442.948303,510.039520 
	C436.844666,505.569885 433.392639,499.540009 432.670044,491.962616 
	C432.340820,488.510406 433.379913,486.446899 437.286133,486.762329 
	C438.775452,486.882599 440.300537,486.904449 441.780609,486.728943 
	C445.777069,486.255127 447.973877,487.480255 449.322205,491.752411 
	C452.581085,502.078369 466.182465,505.357635 474.321198,498.153931 
	C479.812897,493.293152 478.894043,485.381226 472.282959,481.936737 
	C467.682800,479.540009 462.549133,478.587006 457.237610,476.975525 
z"/>
<path fill="#000000" opacity="1.000000" stroke="none" 
	d="
M629.856018,476.683197 
	C632.659607,476.416595 635.864685,477.250549 636.411621,473.898956 
	C636.894592,470.939026 635.246826,468.489166 632.574951,466.881805 
	C628.432434,464.389832 621.660095,464.972473 618.052612,468.180420 
	C612.842346,472.813690 609.915833,473.460541 602.101746,471.706146 
	C601.181641,465.125824 604.517883,458.428680 611.251038,455.031921 
	C621.575745,449.823364 632.196655,449.995361 642.405823,455.328613 
	C649.701721,459.140045 651.901611,466.425598 652.186707,473.891144 
	C652.656799,486.198120 652.229858,498.537018 652.387634,510.859802 
	C652.433228,514.420532 651.009033,515.768494 647.665527,515.350891 
	C643.605896,514.843872 638.341675,517.637024 636.575439,510.935120 
	C632.471313,513.131226 628.751892,515.430847 624.403625,516.039917 
	C616.422729,517.157837 609.024475,515.903259 603.393494,509.618500 
	C598.548584,504.211060 597.480286,497.742035 599.885620,490.969452 
	C603.391907,481.097626 612.085083,479.100220 621.024414,477.716034 
	C623.810547,477.284607 626.624695,477.033630 629.856018,476.683197 
M626.335999,487.958099 
	C624.700928,488.201691 622.966309,488.177917 621.450806,488.742462 
	C617.872864,490.075378 614.767029,492.005005 615.346497,496.611389 
	C615.915894,501.138702 619.189148,502.502502 623.089233,502.824585 
	C628.110718,503.239288 632.119934,501.101990 635.282166,497.343750 
	C637.439758,494.779449 637.139709,491.579620 636.300476,488.809204 
	C635.455322,486.019318 632.588623,487.648468 630.614685,487.426056 
	C629.490112,487.299347 628.316895,487.604523 626.335999,487.958099 
z"/>
<path fill="#000000" opacity="1.000000" stroke="none" 
	d="
M932.999634,488.392212 
	C926.840942,488.384125 921.180115,488.464966 915.523987,488.337158 
	C911.304321,488.241852 910.702393,490.067261 912.100281,493.627533 
	C915.600037,502.541199 924.878784,505.154053 933.013550,499.413635 
	C940.520935,494.116089 941.559570,493.861328 950.712769,495.090759 
	C951.811890,496.227264 951.481873,497.582611 950.955261,498.774384 
	C950.018738,500.893921 949.137573,503.115906 947.775879,504.956665 
	C939.729187,515.834656 928.187561,516.777954 916.292908,514.930969 
	C906.050537,513.340515 898.732056,504.555054 896.580505,493.556122 
	C894.740051,484.148102 895.228271,475.008392 899.309448,466.285248 
	C904.517273,455.153992 916.212402,449.639557 929.418518,451.819031 
	C940.706665,453.681976 949.628357,462.789276 951.297913,474.153687 
	C953.385986,488.366760 953.385925,488.366455 938.991882,488.379211 
	C937.161072,488.380829 935.330322,488.387329 932.999634,488.392212 
M931.663269,467.700470 
	C927.213074,464.542999 922.399231,464.024536 917.641663,466.566071 
	C913.730347,468.655518 911.957214,472.291321 911.984009,477.473572 
	C920.178528,477.525269 928.081665,478.078339 936.100098,477.139099 
	C935.869202,473.227295 934.476318,470.516266 931.663269,467.700470 
z"/>
<path fill="#000000" opacity="1.000000" stroke="none" 
	d="
M389.751190,505.949158 
	C389.737976,486.627289 389.614471,467.798126 389.798340,448.971954 
	C389.840485,444.656189 388.632477,442.883270 384.150360,443.263336 
	C380.180176,443.600006 376.155212,443.228607 372.160828,443.361816 
	C369.106659,443.463654 367.541779,442.516907 367.567535,439.140411 
	C367.670471,425.626953 366.651337,427.987549 378.140869,427.873779 
	C392.968414,427.726898 407.800323,427.986206 422.626923,427.798370 
	C426.929932,427.743835 428.535767,429.047852 428.411469,433.495789 
	C428.092590,444.909119 429.243896,443.179962 418.418549,443.334747 
	C404.109680,443.539337 406.491669,441.637360 406.387726,455.612915 
	C406.256378,473.273651 406.363647,490.936188 406.367859,508.597931 
	C406.368317,510.580048 406.367889,512.562195 406.367889,515.300049 
	C401.549194,515.300049 397.121674,515.344910 392.695709,515.280457 
	C390.597565,515.249939 389.857117,513.821777 389.806976,511.940277 
	C389.758179,510.108673 389.768311,508.275452 389.751190,505.949158 
z"/>
<path fill="#000000" opacity="1.000000" stroke="none" 
	d="
M705.273804,467.061707 
	C703.052124,464.940613 701.807617,455.888580 703.165405,453.945099 
	C704.564941,451.941772 706.830566,452.580719 708.698730,452.695740 
	C712.377258,452.922241 714.028992,451.507111 713.600037,447.804626 
	C713.581055,447.640594 713.599792,447.472046 713.603088,447.305634 
	C713.832947,435.813232 714.540039,435.251770 726.140198,436.647675 
	C728.101868,436.883698 729.289551,437.486938 729.291931,439.601501 
	C729.292725,440.266968 729.326111,440.932312 729.343628,441.597778 
	C729.613770,451.861328 729.608643,451.941162 740.044861,452.614105 
	C742.733643,452.787476 744.084656,453.726929 744.029724,456.459656 
	C744.013000,457.290680 744.075073,458.123016 744.086426,458.954956 
	C744.199341,467.249542 744.198425,467.249512 735.953003,467.228577 
	C729.366272,467.211853 729.359558,467.211884 729.351440,473.823608 
	C729.343811,479.981934 729.301819,486.140778 729.368042,492.298401 
	C729.436584,498.673615 732.088562,501.361176 738.407837,501.648102 
	C744.417297,501.920959 744.161072,501.926056 744.325684,510.136017 
	C744.423401,515.011841 741.955750,515.638123 738.104370,515.400085 
	C735.285217,515.225830 732.438049,515.495056 729.619995,515.311340 
	C719.690369,514.664124 713.784851,508.432190 713.671204,498.461426 
	C713.583923,490.806091 713.650330,483.149017 713.646667,475.492737 
	C713.642761,467.324463 713.641846,467.324463 705.273804,467.061707 
z"/>
<path fill="#000000" opacity="1.000000" stroke="none" 
	d="
M342.921204,432.252197 
	C342.850983,428.829834 344.285034,427.690308 347.222321,427.711456 
	C362.072388,427.818481 359.252350,426.362610 359.337097,438.794006 
	C359.498260,462.429230 359.269470,486.067169 359.436127,509.702301 
	C359.466278,513.978516 358.374817,515.583130 353.861176,515.451233 
	C340.837494,515.070557 342.951538,516.636963 342.905731,504.630951 
	C342.814331,480.661896 342.898010,456.692200 342.921204,432.252197 
z"/>
<path fill="#000000" opacity="1.000000" stroke="none" 
	d="
M680.986145,456.518860 
	C682.589722,455.353119 683.836731,454.093842 685.344116,453.526855 
	C689.223999,452.067444 693.893799,449.856323 697.081421,453.246216 
	C699.954346,456.301544 698.205627,461.184265 697.993347,465.260468 
	C697.895264,467.143555 696.096436,467.174622 694.564270,467.413513 
	C681.370789,469.470886 678.347656,473.063690 678.350342,486.539886 
	C678.351929,494.537842 678.227844,502.538727 678.412354,510.532440 
	C678.497559,514.223755 677.138062,515.489014 673.461365,515.418213 
	C660.477173,515.168213 661.968506,516.923584 661.911255,504.010193 
	C661.843994,488.847687 662.051392,473.681885 661.788025,458.523621 
	C661.706726,453.844879 663.296753,452.080627 667.820801,452.624420 
	C669.134827,452.782318 670.500610,452.785065 671.813843,452.623871 
	C676.076355,452.100677 679.063049,453.068665 678.342957,458.948853 
	C679.574219,457.818481 680.161194,457.279602 680.986145,456.518860 
z"/>
<path fill="#000000" opacity="1.000000" stroke="none" 
	d="
M888.054565,451.732910 
	C892.020325,451.796326 893.670166,453.517609 893.301208,457.095215 
	C893.216370,457.918152 893.183777,458.774719 893.311401,459.586823 
	C894.145569,464.894409 892.649109,467.379211 886.566956,468.061615 
	C876.589600,469.180969 873.343079,473.727570 873.262329,483.879028 
	C873.194824,492.363922 873.103638,500.850494 873.207764,509.334045 
	C873.261658,513.725952 871.667236,515.563599 867.007568,515.406006 
	C856.240845,515.041870 856.852478,516.685730 856.973511,505.601288 
	C857.151367,489.302307 857.370117,473.003754 857.592896,456.705322 
	C857.608337,455.576477 857.802246,454.450104 857.933960,453.111450 
	C862.726013,452.250214 867.296814,452.739563 871.643372,452.794769 
	C873.104980,455.135864 871.983032,457.425873 872.882751,459.951233 
	C876.705322,454.931885 881.487854,452.031616 888.054565,451.732910 
z"/>
<path fill="#000000" opacity="1.000000" stroke="none" 
	d="
M848.038086,469.003387 
	C848.047241,482.797028 847.936401,496.093292 848.124817,509.385315 
	C848.187988,513.838745 846.800232,515.588379 842.102600,515.419128 
	C831.279907,515.029297 832.720337,516.321106 832.671570,506.148651 
	C832.594299,490.029266 832.749878,473.908264 832.584900,457.790222 
	C832.545349,453.933044 833.711426,452.486847 837.682251,452.586731 
	C849.360107,452.880402 847.901917,451.409210 848.041077,462.521881 
	C848.066040,464.515686 848.038330,466.510162 848.038086,469.003387 
z"/>
<path fill="#000000" opacity="1.000000" stroke="none" 
	d="
M454.313538,574.250610 
	C454.092957,581.974731 450.759491,585.522888 443.438080,586.262207 
	C427.574188,587.864319 427.577393,587.864319 427.596832,571.901001 
	C427.605499,564.774536 427.598297,557.648132 427.598297,550.020203 
	C433.565491,549.570068 439.172821,549.010437 444.663513,550.272217 
	C451.004517,551.729431 453.780212,555.663452 452.088837,562.099426 
	C451.092346,565.891357 451.513397,568.569031 453.646545,571.461060 
	C454.100464,572.076538 454.093048,573.032227 454.313538,574.250610 
M444.090698,578.927307 
	C446.000702,577.381287 447.687225,575.557739 445.769287,573.141418 
	C443.437439,570.203796 439.966858,571.004456 437.088043,571.770996 
	C434.409424,572.484131 434.943542,575.513184 435.514099,577.301941 
	C436.929718,581.739929 440.608398,579.153259 444.090698,578.927307 
M442.527130,556.721436 
	C439.924561,556.426086 436.722992,554.609192 435.462463,558.489319 
	C434.875946,560.294861 434.092285,563.082764 436.673553,564.170288 
	C438.961578,565.134155 441.669830,565.068420 443.616089,563.117493 
	C445.598602,561.130249 445.313629,558.992737 442.527130,556.721436 
z"/>
<path fill="#000000" opacity="1.000000" stroke="none" 
	d="
M389.828247,585.878906 
	C378.813416,581.376221 374.487366,569.642334 379.491211,558.782410 
	C383.647675,549.761536 395.687744,546.242126 405.277863,551.244812 
	C412.025604,554.764771 415.548096,563.794006 413.546753,572.440613 
	C411.494354,581.307800 405.767670,586.220093 397.193268,586.345459 
	C394.873169,586.379333 392.548981,586.134766 389.828247,585.878906 
M385.489716,570.772339 
	C385.723633,571.395081 385.919983,572.035095 386.197266,572.637878 
	C388.875397,578.458984 393.947876,581.066040 399.001190,579.234009 
	C404.137939,577.371704 407.738983,570.415710 406.437897,564.868713 
	C405.147522,559.367554 400.145172,555.752563 394.586060,556.303772 
	C388.433167,556.913879 385.279114,561.603088 385.489716,570.772339 
z"/>
<path fill="#000000" opacity="1.000000" stroke="none" 
	d="
M526.676392,570.682739 
	C526.633972,556.778564 530.682556,551.350525 542.289124,549.286621 
	C553.165955,547.352478 562.320068,554.963318 563.250305,566.713867 
	C564.091125,577.334656 556.227478,586.235107 545.890808,586.362244 
	C534.371277,586.503906 528.896667,582.161072 526.676392,570.682739 
M544.537903,579.667969 
	C551.820007,578.712646 556.148926,573.716125 555.608704,566.889771 
	C555.075012,560.145752 550.675964,556.049866 544.196289,556.263794 
	C539.037231,556.434204 534.802795,560.476135 534.330139,565.681580 
	C533.607727,573.636597 536.428894,577.814636 544.537903,579.667969 
z"/>
<path fill="#000000" opacity="1.000000" stroke="none" 
	d="
M587.629517,574.406372 
	C583.005798,575.242188 584.636536,578.700439 584.373535,581.234253 
	C584.118408,583.692688 584.733887,586.281433 580.772522,586.342896 
	C576.779846,586.404846 576.643555,584.079590 576.662842,581.169922 
	C576.722290,572.192566 576.798523,563.212769 576.645386,554.237732 
	C576.585938,550.752319 577.919739,549.441040 581.335327,549.633545 
	C584.650208,549.820435 587.991699,549.538208 591.306152,549.728760 
	C596.251953,550.013123 600.350830,551.798462 602.325867,556.820740 
	C604.318542,561.887817 603.329163,566.477295 599.390137,569.996033 
	C596.702332,572.396912 597.104004,574.156311 598.912720,576.696777 
	C600.798218,579.345276 602.996277,581.885742 604.090393,585.506104 
	C599.883240,586.965637 596.751038,586.738586 594.195129,582.709717 
	C592.364624,579.824402 591.240417,576.303040 587.629517,574.406372 
M584.362671,563.655884 
	C584.847595,568.001587 588.192871,566.644653 590.473145,566.333862 
	C593.053284,565.982117 595.138916,564.122437 595.328674,561.352905 
	C595.515503,558.627258 593.434082,557.251160 591.044250,556.592468 
	C585.999329,555.202087 584.429321,556.715698 584.362671,563.655884 
z"/>
<path fill="#000000" opacity="1.000000" stroke="none" 
	d="
M656.899902,565.018799 
	C658.609619,560.641663 660.066162,556.576477 661.745544,552.605408 
	C663.227234,549.101746 669.692505,548.091187 671.017517,551.374817 
	C675.519958,562.532776 679.449768,573.921814 683.650635,585.365234 
	C679.036377,586.957214 675.904114,586.822388 674.668579,582.227112 
	C673.655029,578.457092 670.860229,578.050354 667.662170,578.342957 
	C664.089172,578.669800 659.631653,576.875671 658.019897,582.105835 
	C656.761047,586.190613 654.194763,587.108521 649.782532,585.449280 
	C651.390869,578.443909 654.556824,572.060974 656.899902,565.018799 
M663.635742,567.052368 
	C663.273743,568.608459 661.851135,569.943115 662.754761,572.025208 
	C665.022705,572.738342 667.965027,573.578918 669.213623,570.973877 
	C670.642029,567.993896 669.181946,565.014954 666.701477,562.879639 
	C664.649292,563.451111 664.478943,565.080322 663.635742,567.052368 
z"/>
<path fill="#000000" opacity="1.000000" stroke="none" 
	d="
M487.846619,573.978638 
	C487.848145,567.323425 488.078888,561.152161 487.769989,555.008057 
	C487.555786,550.747070 489.204895,549.299316 493.261993,549.623291 
	C496.074402,549.847900 498.920959,549.601929 501.748688,549.685974 
	C509.148865,549.905762 513.726501,553.950623 514.241455,560.637878 
	C514.734436,567.039368 510.421875,571.970459 503.270020,573.182922 
	C495.731415,574.460999 495.704742,574.460449 495.539612,581.737671 
	C495.482574,584.250610 495.338654,586.361755 491.881073,586.327454 
	C488.747650,586.296326 487.796997,584.724426 487.831635,581.965454 
	C487.862946,579.468750 487.842987,576.971313 487.846619,573.978638 
M496.782837,557.632996 
	C495.124939,563.964783 495.925018,566.455872 499.688751,566.554749 
	C502.411346,566.626221 504.374268,565.368347 505.762756,563.027405 
	C506.669434,561.498718 506.448059,560.166443 505.324219,558.972595 
	C503.101044,556.611145 500.526642,555.523804 496.782837,557.632996 
z"/>
<path fill="#000000" opacity="1.000000" stroke="none" 
	d="
M630.752869,586.148926 
	C626.879761,586.715393 625.482239,585.293457 625.561951,581.787170 
	C625.713135,575.139221 625.476074,568.482666 625.619629,561.834351 
	C625.702515,557.996033 624.652832,555.760254 620.287598,556.309387 
	C615.597168,556.899353 614.897766,554.397583 616.281677,549.794373 
	C624.323486,549.794373 632.549316,549.751770 640.774109,549.826172 
	C642.684631,549.843445 643.126526,551.331665 643.156860,552.985474 
	C643.192627,554.931702 642.437012,555.950195 640.360168,556.338135 
	C633.119751,557.690430 633.124756,557.763733 633.116516,564.848022 
	C633.110352,570.169312 633.169739,575.490906 633.117249,580.811646 
	C633.098145,582.748657 633.448181,584.907471 630.752869,586.148926 
z"/>
<path fill="#000000" opacity="1.000000" stroke="none" 
	d="
M695.695923,575.963440 
	C695.699036,568.319153 695.797852,561.166504 695.664490,554.018127 
	C695.604553,550.800598 696.815613,549.578979 700.054443,549.638306 
	C703.487671,549.701111 703.618774,551.648560 703.555481,554.252380 
	C703.405884,560.401917 703.444092,566.555847 703.380981,572.707703 
	C703.336975,577.007324 705.160583,579.254395 709.728088,578.840820 
	C711.539734,578.676758 713.386536,578.793518 715.210510,578.899353 
	C717.516479,579.033020 718.284729,580.478821 718.232605,582.623169 
	C718.182007,584.708679 717.557495,586.245667 715.145325,586.252686 
	C709.824341,586.268250 704.503296,586.244812 699.182251,586.257507 
	C696.596130,586.263733 695.691956,584.806274 695.716553,582.443176 
	C695.737366,580.447998 695.705505,578.452271 695.695923,575.963440 
z"/>
<path fill="#000000" opacity="1.000000" stroke="none" 
	d="
M356.509430,550.584961 
	C362.907227,549.237366 363.268524,549.487366 363.307007,555.332092 
	C363.350861,561.992676 363.499725,568.660767 363.258514,575.313049 
	C362.943298,584.007202 355.544861,588.965454 347.525330,585.933289 
	C345.057159,585.000122 341.976196,583.394043 343.182739,580.285828 
	C344.223145,577.605591 346.986755,577.338989 349.935516,578.803040 
	C353.584808,580.614868 355.477875,579.005859 355.691223,574.352783 
	C356.048920,566.550720 355.160583,558.720825 356.509430,550.584961 
z"/>
<path fill="#000000" opacity="1.000000" stroke="none" 
	d="
M849.287964,437.163574 
	C848.405945,444.064240 845.139709,446.854858 839.061035,446.328766 
	C834.060181,445.895996 830.941467,442.296234 831.310181,437.204285 
	C831.613342,433.017914 833.925842,430.444763 838.062073,429.739227 
	C844.137573,428.702789 847.117798,430.623260 849.287964,437.163574 
z"/>
<path fill="#000000" opacity="1.000000" stroke="none" 
	d="
M213.154327,546.393616 
	C196.941742,548.569519 182.351913,544.579529 168.376144,537.729492 
	C162.086990,534.646973 156.276993,530.738342 150.767349,526.391663 
	C148.970551,524.974182 147.647171,523.451721 147.849152,520.974121 
	C148.348572,514.848206 148.755493,508.714752 149.264526,502.589722 
	C150.279892,490.372772 157.573395,482.591095 167.763809,477.116669 
	C182.305695,469.304657 183.624191,469.839722 190.691040,484.478607 
	C193.877151,491.078552 195.787811,498.139282 198.165878,504.718445 
	C200.831635,494.405182 197.284973,485.237030 190.998169,477.023529 
	C199.265717,471.755646 209.453506,471.757385 218.637039,477.053680 
	C211.001373,485.565308 208.613525,495.618011 210.897522,507.218811 
	C213.244873,496.726624 216.736023,487.118317 221.839935,478.109497 
	C225.696121,471.302917 225.573273,471.302063 232.892883,473.606018 
	C241.333878,476.262970 248.591995,480.548218 254.469589,487.368774 
	C260.417847,494.271362 260.953979,502.711151 261.119446,510.869415 
	C261.449738,527.152466 264.090393,522.445312 250.456619,532.118530 
	C239.435715,539.938049 227.125412,544.827393 213.154327,546.393616 
z"/>
<path fill="#000000" opacity="1.000000" stroke="none" 
	d="
M234.933075,417.400116 
	C242.124451,437.926300 232.372131,457.190582 212.441010,462.504456 
	C194.303574,467.340118 175.784958,455.456116 171.923935,436.503387 
	C168.289948,418.665100 180.811096,400.758667 198.624298,397.601654 
	C214.324066,394.819214 229.947754,404.030396 234.933075,417.400116 
z"/>
</svg>